<?xml version="1.0" encoding="iso-8859-1"?>
<!-- Generator: Adobe Illustrator 19.0.0, SVG Export Plug-In . SVG Version: 6.00 Build 0)  -->
<svg version="1.1" id="Layer_1" xmlns="http://www.w3.org/2000/svg" xmlns:xlink="http://www.w3.org/1999/xlink" x="0px" y="0px"
	 viewBox="0 0 511.982 427.982" style="enable-background:new 0 0 511.982 511.982;" xml:space="preserve">
<rect x="42.656" y="319.992" style="fill:black;" width="106.67" height="106.67"/>
<rect x="149.329" y="319.992" style="fill:red;" width="106.65" height="106.67"/>
<rect x="255.979" y="319.992" style="fill:black;" width="106.66" height="106.67"/>
<g>
	<rect x="362.639" y="319.992" style="fill:red;" width="106.68" height="106.67"/>
	<rect x="42.656" y="213.332" style="fill:red;" width="106.67" height="106.66"/>
</g>
<rect x="149.329" y="213.332" style="fill:black;" width="106.65" height="106.66"/>
<rect x="255.979" y="213.332" style="fill:red;" width="106.66" height="106.66"/>
<g>
	<rect x="362.639" y="213.332" style="fill:black;" width="106.68" height="106.66"/>
	<rect x="42.656" y="106.662" style="fill:black;" width="106.67" height="106.67"/>
</g>
<rect x="149.329" y="106.662" style="fill:red;" width="106.65" height="106.67"/>
<rect x="255.979" y="106.662" style="fill:black;" width="106.66" height="106.67"/>
<g>
	<rect x="362.639" y="106.662" style="fill:red;" width="106.68" height="106.67"/>
	<rect x="42.656" style="fill:red;" width="106.67" height="106.66"/>
</g>
<rect x="149.329" style="fill:black;" width="106.65" height="106.66"/>
<rect x="255.979" style="fill:red;" width="106.66" height="106.66"/>
<rect x="362.639" style="fill:black;" width="106.68" height="106.66"/>
</svg>
