<?xml version="1.0" encoding="iso-8859-1"?>
<!-- Generator: Adobe Illustrator 19.0.0, SVG Export Plug-In . SVG Version: 6.00 Build 0)  -->
<svg version="1.1" id="Layer_1" xmlns="http://www.w3.org/2000/svg" xmlns:xlink="http://www.w3.org/1999/xlink" x="0px" y="0px"
	 viewBox="0 0 473.931 473.931" style="enable-background:new 0 0 473.931 473.931;" xml:space="preserve">
<path style="fill:#DECD7A;" d="M424.312,225.355c0,95.071-77.892,172.128-173.981,172.128c-96.085,0-173.977-77.058-173.977-172.128
	c0-80.792,41.485-128.425,113.604-135.586c46.394-4.61,43.105,53.795,64.078,56.257c31.506,3.704,36.044-8.58,68.691-12.337
	C384.574,126.576,424.312,159.425,424.312,225.355z"/>
<path style="fill:#DECD7A;" d="M210.025,392.84c-76.646-17.994-133.671-86.147-133.671-167.489
	c0-80.792,41.129-134.924,113.604-135.586c53.799-0.498,43.105,53.795,64.078,56.257C285.545,149.73,222.96,395.874,210.025,392.84z
	"/>
<ellipse transform="matrix(0.1673 -0.9859 0.9859 0.1673 -47.2824 300.2234)" style="fill:#DBC55E;" cx="154.089" cy="178.103" rx="28.377" ry="32.082"/>
<ellipse transform="matrix(0.1671 -0.9859 0.9859 0.1671 -47.2603 300.2516)" style="fill:#F4F5F599;" cx="154.082" cy="178.098" rx="22.884" ry="25.866"/>
<path style="fill:#DBC55E;" d="M401.285,196.611c6.945,12.367-3.338,32.609-20.976,31.812c-15.532-0.707-31.805-3.903-33.597-17.972
	c-3.225-25.343,5.905-27.988,20.976-31.812C382.76,174.815,394.06,183.747,401.285,196.611z"/>
<path style="fill:#E84849;" d="M395.886,194.074c7.525,9.392,1.714,27.764-13.164,29.526c-13.104,1.564-27.165,1.134-30.611-10.398
	c-6.204-20.763,1.074-24.243,13.163-29.526C377.36,178.4,388.054,184.304,395.886,194.074z"/>
<path style="fill:#DBC55E;" d="M390.737,273.38c3.697,13.695-11.248,30.795-28.149,25.68c-14.885-4.501-29.87-11.599-28.149-25.68
	c3.098-25.343,12.602-25.672,28.149-25.672S386.894,259.139,390.737,273.38z"/>
<path style="fill:#E79E2D;" d="M386.127,269.598c4.988,10.956-5.16,27.334-20.018,25.388c-13.085-1.71-26.611-5.583-27.117-17.605
	c-0.913-21.646,6.997-23.233,20.015-25.38C372.021,249.849,380.937,258.204,386.127,269.598z"/>
<path style="fill:#DBC55E;" d="M332.71,342.263c-5.224,13.182-27.423,17.949-37.915,3.749c-9.238-12.512-17.01-27.158-7.214-37.41
	c17.642-18.477,25.451-13.051,37.915-3.757C337.956,314.139,338.147,328.538,332.71,342.263z"/>
<path style="fill:#CAB425;" d="M331.277,336.467c-2.552,11.76-20.479,18.825-31.225,8.382c-9.463-9.194-17.998-20.381-11.214-30.327
	c12.213-17.889,19.498-14.432,31.218-8.374C331.774,312.201,333.93,324.224,331.277,336.467z"/>
<path style="fill:#DBC55E;" d="M255.428,360.788c-7.884,11.787-30.596,11.768-37.855-4.325c-6.391-14.178-10.903-30.14,0.842-38.099
	c21.137-14.331,27.629-7.39,37.852,4.325C266.488,334.405,263.637,348.522,255.428,360.788z"/>
<path style="fill:#6CC077;" d="M255.248,354.824c-4.977,10.956-23.988,14.084-32.288,1.609
	c-7.311-10.986-13.294-23.723-4.561-32.011c15.712-14.915,22.106-9.998,32.28-1.601
	C260.857,331.213,260.426,343.422,255.248,354.824z"/>
</svg>
